<svg viewBox="0 0 100 100" fill="none" xmlns="http://www.w3.org/2000/svg">
  <defs>
    <linearGradient id="grad" x1="0%" y1="0%" x2="100%" y2="100%">
      <stop offset="0%" style="stop-color:#3b82f6;stop-opacity:1" />
      <stop offset="50%" style="stop-color:#7c3aed;stop-opacity:1" />
      <stop offset="100%" style="stop-color:#8b5cf6;stop-opacity:1" />
    </linearGradient>
    <linearGradient id="glow" x1="0%" y1="0%" x2="0%" y2="100%">
      <stop offset="0%" style="stop-color:#60a5fa;stop-opacity:1" />
      <stop offset="100%" style="stop-color:#3b82f6;stop-opacity:1" />
    </linearGradient>
  </defs>
  
  <rect width="100" height="100" rx="22" fill="#0f172a"/>
  
  <!-- Server rack -->
  <rect x="22" y="20" width="56" height="60" rx="4" fill="url(#grad)" opacity="0.15" />
  <rect x="24" y="22" width="52" height="56" rx="3" fill="#1e293b" stroke="url(#grad)" stroke-width="1.5" />
  
  <!-- Server slots -->
  <rect x="28" y="28" width="44" height="10" rx="2" fill="url(#grad)" opacity="0.9" />
  <rect x="28" y="42" width="44" height="10" rx="2" fill="url(#grad)" opacity="0.75" />
  <rect x="28" y="56" width="44" height="10" rx="2" fill="url(#grad)" opacity="0.6" />
  
  <!-- Status LEDs -->
  <circle cx="32" cy="33" r="1.5" fill="#10b981" />
  <circle cx="37" cy="33" r="1.5" fill="#10b981" />
  <circle cx="32" cy="47" r="1.5" fill="#3b82f6" />
  <circle cx="37" cy="47" r="1.5" fill="#3b82f6" />
  <circle cx="32" cy="61" r="1.5" fill="#8b5cf6" />
  <circle cx="37" cy="61" r="1.5" fill="#8b5cf6" />
  
  <!-- Activity indicators -->
  <rect x="42" y="31" width="26" height="1.5" rx="0.75" fill="#60a5fa" opacity="0.8" />
  <rect x="42" y="34.5" width="20" height="1.5" rx="0.75" fill="#60a5fa" opacity="0.5" />
  <rect x="42" y="45" width="26" height="1.5" rx="0.75" fill="#7c3aed" opacity="0.7" />
  <rect x="42" y="48.5" width="18" height="1.5" rx="0.75" fill="#7c3aed" opacity="0.4" />
  <rect x="42" y="59" width="26" height="1.5" rx="0.75" fill="#a78bfa" opacity="0.6" />
  <rect x="42" y="62.5" width="22" height="1.5" rx="0.75" fill="#a78bfa" opacity="0.3" />
  
  <!-- Lightning bolt -->
  <path d="M 56 82 L 50 92 L 54 92 L 48 102 L 60 88 L 55 88 Z" fill="url(#glow)" opacity="0.95" />
</svg>
